# xmcd
#
# Track frame offsets: 
#        150
#        20455
#        42533
#        62246
#        80677
#        101204
#        126037
#        143472
#        167997
#        189126
#        210741
#        229150
#
# Disc length: 3388 seconds
#
# Revision: 0
# Processed by: cddbd v1.5.2PL0 Copyright (c) Steve Scherf et al.
# Submitted via: ExactAudioCopy v1.0b3
#
DISCID=a60d3a0c
DTITLE=Giao Linh - Nhung Tinh Khuc Bat Hu 1
DYEAR=2002
DGENRE=
TTITLE0=Thu do thi
TTITLE1=Troi ghen ma do (Nam 17 tuoi)
TTITLE2=Tam su tuoi tinh yeu
TTITLE3=Chuyen tinh dang do
TTITLE4=Ao trang ngay vu quy
TTITLE5=Tam neo duong thanh
TTITLE6=Mong uoc
TTITLE7=Neo duong ky niem
TTITLE8=Cho em tinh yeu va ngan cach
TTITLE9=Gio nui mua rung
TTITLE10=Nhung loi nay cho anh
TTITLE11=Tieng ru ngan doi
EXTD=
EXTT0=
EXTT1=
EXTT2=
EXTT3=
EXTT4=
EXTT5=
EXTT6=
EXTT7=
EXTT8=
EXTT9=
EXTT10=
EXTT11=
PLAYORDER=
